<svg width="234" height="133" viewBox="0 0 234 133" fill="none" xmlns="http://www.w3.org/2000/svg">
<path d="M196.364 94.9131V54.6723H202.424V60.9499C203.879 59.0183 205.657 57.3818 207.758 56.0405C209.859 54.6991 212.552 54.0284 215.838 54.0284C218.64 54.0284 221.253 54.6991 223.677 56.0405C226.155 57.3282 228.148 59.2866 229.657 61.9156C231.219 64.4911 232 67.6835 232 71.493V94.9131H225.939V71.6539C225.939 68.0054 224.889 65.0813 222.788 62.8814C220.687 60.6279 217.966 59.5012 214.626 59.5012C212.364 59.5012 210.317 60.0109 208.485 61.0303C206.653 62.0498 205.172 63.4985 204.041 65.3764C202.963 67.2006 202.424 69.32 202.424 71.7344V94.9131H196.364Z" fill="#0F4761" stroke="#0F4761" stroke-width="3"/>
<path d="M179.55 47.9119V40.0247H186.095V47.9119H179.55ZM179.792 94.9132V54.6723H185.853V94.9132H179.792Z" fill="#0F4761" stroke="#0F4761" stroke-width="3"/>
<path d="M150.239 111.492C145.175 111.492 141.054 110.392 137.875 108.193C134.697 106.046 132.542 103.23 131.411 99.742H138.118C138.926 101.727 140.326 103.256 142.32 104.329C144.313 105.456 146.845 106.02 149.915 106.02C154.548 106.02 157.915 104.92 160.016 102.72C162.171 100.574 163.249 97.4349 163.249 93.3035V87.7503C161.74 89.8964 159.774 91.6402 157.35 92.9816C154.979 94.2693 152.124 94.9131 148.784 94.9131C144.852 94.9131 141.404 94.0278 138.441 92.2572C135.532 90.433 133.269 87.9649 131.653 84.8529C130.037 81.741 129.229 78.2802 129.229 74.4708C129.229 70.6077 130.037 67.147 131.653 64.0886C133.269 60.9767 135.532 58.5354 138.441 56.7648C141.404 54.9406 144.852 54.0284 148.784 54.0284C152.124 54.0284 154.979 54.6723 157.35 55.96C159.774 57.1941 161.74 58.911 163.249 61.1108V54.6723H169.309V93.7059C169.309 99.4469 167.639 103.847 164.299 106.905C161.013 109.963 156.326 111.492 150.239 111.492ZM149.592 89.4404C152.555 89.4404 155.06 88.7697 157.107 87.4283C159.208 86.087 160.798 84.2895 161.875 82.0361C163.006 79.7289 163.572 77.2072 163.572 74.4708C163.572 71.6808 163.006 69.159 161.875 66.9055C160.798 64.652 159.208 62.8546 157.107 61.5132C155.06 60.1719 152.555 59.5012 149.592 59.5012C146.629 59.5012 144.07 60.1719 141.916 61.5132C139.761 62.8546 138.118 64.652 136.986 66.9055C135.855 69.159 135.289 71.6808 135.289 74.4708C135.289 77.2072 135.855 79.7289 136.986 82.0361C138.118 84.2895 139.761 86.087 141.916 87.4283C144.07 88.7697 146.629 89.4404 149.592 89.4404Z" fill="#0F4761" stroke="#0F4761" stroke-width="3"/>
<path d="M103.657 95.557C99.5628 95.557 96.0072 94.6449 92.9904 92.8206C89.9736 90.9427 87.6571 88.4209 86.041 85.2553C84.4248 82.0897 83.6168 78.6022 83.6168 74.7927C83.6168 70.9296 84.4248 67.4421 86.041 64.3301C87.6571 61.1645 89.9736 58.6696 92.9904 56.8453C96.0072 54.9674 99.5628 54.0284 103.657 54.0284C107.805 54.0284 111.361 54.9674 114.324 56.8453C117.34 58.6696 119.657 61.1645 121.273 64.3301C122.889 67.4421 123.697 70.9296 123.697 74.7927C123.697 78.6022 122.889 82.0897 121.273 85.2553C119.657 88.4209 117.34 90.9427 114.324 92.8206C111.361 94.6449 107.805 95.557 103.657 95.557ZM103.657 90.0842C106.674 90.0842 109.206 89.3867 111.253 87.9917C113.354 86.5967 114.943 84.7456 116.021 82.4385C117.098 80.0777 117.637 77.5291 117.637 74.7927C117.637 72.0027 117.098 69.4541 116.021 67.1469C114.943 64.8398 113.354 62.9887 111.253 61.5937C109.206 60.1987 106.674 59.5012 103.657 59.5012C100.694 59.5012 98.1621 60.1987 96.0611 61.5937C93.9601 62.9887 92.3709 64.8398 91.2935 67.1469C90.216 69.4541 89.6773 72.0027 89.6773 74.7927C89.6773 77.5291 90.216 80.0777 91.2935 82.4385C92.3709 84.7456 93.9601 86.5967 96.0611 87.9917C98.1621 89.3867 100.694 90.0842 103.657 90.0842Z" fill="#0F4761" stroke="#0F4761" stroke-width="3"/>
<path d="M58.045 95.557C53.9508 95.557 50.3952 94.6449 47.3784 92.8206C44.3616 90.9427 42.0451 88.4209 40.429 85.2553C38.8128 82.0897 38.0048 78.6022 38.0048 74.7927C38.0048 70.9296 38.8128 67.4421 40.429 64.3301C42.0451 61.1645 44.3616 58.6696 47.3784 56.8453C50.3952 54.9674 53.9508 54.0284 58.045 54.0284C62.1931 54.0284 65.7486 54.9674 68.7116 56.8453C71.7284 58.6696 74.0449 61.1645 75.661 64.3301C77.2772 67.4421 78.0852 70.9296 78.0852 74.7927C78.0852 78.6022 77.2772 82.0897 75.661 85.2553C74.0449 88.4209 71.7284 90.9427 68.7116 92.8206C65.7486 94.6449 62.1931 95.557 58.045 95.557ZM58.045 90.0842C61.0618 90.0842 63.5938 89.3867 65.6409 87.9917C67.7419 86.5967 69.3311 84.7456 70.4085 82.4385C71.486 80.0777 72.0247 77.5291 72.0247 74.7927C72.0247 72.0027 71.486 69.4541 70.4085 67.1469C69.3311 64.8398 67.7419 62.9887 65.6409 61.5937C63.5938 60.1987 61.0618 59.5012 58.045 59.5012C55.0821 59.5012 52.5501 60.1987 50.4491 61.5937C48.3481 62.9887 46.7589 64.8398 45.6815 67.1469C44.604 69.4541 44.0653 72.0027 44.0653 74.7927C44.0653 77.5291 44.604 80.0777 45.6815 82.4385C46.7589 84.7456 48.3481 86.5967 50.4491 87.9917C52.5501 89.3867 55.0821 90.0842 58.045 90.0842Z" fill="#0F4761" stroke="#0F4761" stroke-width="3"/>
<path d="M2 94.9131V38.5759H8.06056V74.6317L27.5351 54.6723H36.0199L19.7776 70.5272L37.232 94.9131H29.7978L15.6565 74.7122L8.06056 82.197V94.9131H2Z" fill="#0F4761" stroke="#0F4761" stroke-width="3"/>
<line y1="-1.5" x2="57.0604" y2="-1.5" transform="matrix(0.977838 0.234165 -0.23814 0.965527 97.7791 17.7356)" stroke="#0F4761" stroke-width="3"/>
<line y1="-1.5" x2="26.3499" y2="-1.5" transform="matrix(0.874046 -0.484101 0.495921 0.869358 89.9918 33.8591)" stroke="#0F4761" stroke-width="3"/>
<line y1="-1.5" x2="27.3442" y2="-1.5" transform="matrix(0.957201 -0.294492 0.301614 0.951849 129.068 34.8885)" stroke="#0F4761" stroke-width="3"/>
<line y1="-1.5" x2="12.848" y2="-1.5" transform="matrix(0.250605 0.965946 -0.97168 0.244763 124.847 22.6941)" stroke="#0F4761" stroke-width="3"/>
<line y1="-1.5" x2="17.2154" y2="-1.5" transform="matrix(0.267691 0.961545 -0.967142 0.261421 106.724 3.95532)" stroke="#0F4761" stroke-width="3"/>
<line y1="-1.5" x2="13.8922" y2="-1.5" transform="matrix(-0.90867 0.417515 -0.427756 -0.903894 108.412 3.06519)" stroke="#0F4761" stroke-width="3"/>
<line y1="-1.5" x2="10.655" y2="-1.5" transform="matrix(0.0564009 0.994471 -1.00234 0.0551947 88.7161 21.8999)" stroke="#0F4761" stroke-width="3"/>
<mask id="path-14-inside-1_209_3" fill="white">
<ellipse cx="2.9922" cy="2.96396" rx="2.9922" ry="2.96396" transform="matrix(0.90867 -0.417515 0.427756 0.903894 87.1428 30.2333)"/>
</mask>
<ellipse cx="2.9922" cy="2.96396" rx="2.9922" ry="2.96396" transform="matrix(0.90867 -0.417515 0.427756 0.903894 87.1428 30.2333)" fill="#C5E1A5"/>
<path d="M91.1225 31.6664C91.1225 31.6664 91.1225 31.6663 91.1224 31.6662C91.1224 31.666 91.1223 31.6659 91.1222 31.6656C91.122 31.6651 91.1217 31.6645 91.1214 31.6636C91.1208 31.6619 91.1202 31.6597 91.1195 31.6572C91.1183 31.6519 91.1176 31.6466 91.1174 31.6419C91.1172 31.6373 91.1176 31.634 91.1179 31.632C91.1182 31.63 91.1185 31.6292 91.1186 31.6291C91.1186 31.629 91.1186 31.6291 91.1185 31.6292C91.1185 31.6292 91.1187 31.6289 91.1192 31.6284C91.1194 31.6281 91.1197 31.6278 91.12 31.6276C91.1201 31.6275 91.1202 31.6274 91.1203 31.6273C91.1204 31.6272 91.1204 31.6272 91.1204 31.6272C91.1204 31.6272 91.1203 31.6273 91.1201 31.6274C91.12 31.6275 91.1197 31.6277 91.1192 31.6279C91.1184 31.6284 91.1168 31.6293 91.1142 31.6305L93.6807 37.0539C96.6635 35.6834 97.9949 32.1627 96.5745 29.1613L91.1225 31.6664ZM91.1142 31.6305C91.1116 31.6317 91.1099 31.6324 91.1089 31.6327C91.1085 31.6328 91.1081 31.6329 91.1079 31.633C91.1077 31.6331 91.1076 31.6331 91.1076 31.6331C91.1076 31.6331 91.1076 31.6331 91.1078 31.6331C91.1079 31.633 91.108 31.633 91.1082 31.633C91.1086 31.6329 91.1089 31.6329 91.1093 31.6329C91.11 31.6329 91.1104 31.6329 91.1104 31.6329C91.1103 31.6329 91.1102 31.6329 91.1103 31.6329C91.1103 31.6329 91.1112 31.6333 91.1129 31.6343C91.1147 31.6353 91.1175 31.6372 91.1209 31.6403C91.1245 31.6434 91.1282 31.6473 91.1315 31.6517C91.133 31.6538 91.1343 31.6557 91.1353 31.6573C91.1357 31.6581 91.1361 31.6587 91.1363 31.6591C91.1364 31.6594 91.1365 31.6595 91.1366 31.6597C91.1367 31.6598 91.1367 31.6598 91.1367 31.6598L85.6847 34.1649C87.1051 37.1664 90.698 38.4244 93.6807 37.0539L91.1142 31.6305ZM91.1367 31.6598C91.1367 31.6598 91.1367 31.6599 91.1368 31.66C91.1368 31.6602 91.1369 31.6603 91.137 31.6606C91.1372 31.661 91.1375 31.6617 91.1378 31.6626C91.1384 31.6643 91.139 31.6665 91.1397 31.669C91.1409 31.6743 91.1416 31.6796 91.1418 31.6843C91.142 31.6889 91.1416 31.6922 91.1413 31.6942C91.141 31.6961 91.1407 31.697 91.1406 31.6971C91.1406 31.6972 91.1406 31.6971 91.1407 31.697C91.1407 31.697 91.1405 31.6973 91.14 31.6978C91.1398 31.6981 91.1395 31.6984 91.1392 31.6986C91.1391 31.6987 91.139 31.6988 91.1389 31.6989C91.1388 31.699 91.1388 31.699 91.1388 31.699C91.1388 31.699 91.1389 31.6989 91.1391 31.6988C91.1392 31.6987 91.1395 31.6985 91.14 31.6982C91.1408 31.6978 91.1424 31.6969 91.145 31.6957L88.5785 26.2723C85.5957 27.6428 84.2643 31.1635 85.6847 34.1649L91.1367 31.6598ZM91.145 31.6957C91.1476 31.6945 91.1493 31.6938 91.1503 31.6935C91.1507 31.6934 91.1511 31.6933 91.1513 31.6932C91.1515 31.6931 91.1516 31.6931 91.1516 31.6931C91.1516 31.6931 91.1516 31.6931 91.1514 31.6931C91.1513 31.6932 91.1512 31.6932 91.151 31.6932C91.1506 31.6933 91.1503 31.6933 91.1499 31.6933C91.1492 31.6933 91.1488 31.6933 91.1488 31.6933C91.1489 31.6933 91.149 31.6933 91.1489 31.6933C91.1489 31.6933 91.148 31.6929 91.1463 31.6919C91.1445 31.6909 91.1417 31.689 91.1383 31.6859C91.1347 31.6828 91.131 31.6788 91.1277 31.6745C91.1262 31.6724 91.1249 31.6705 91.1239 31.6689C91.1235 31.6681 91.1231 31.6675 91.1229 31.6671C91.1228 31.6668 91.1227 31.6667 91.1226 31.6665C91.1225 31.6664 91.1225 31.6664 91.1225 31.6664L96.5745 29.1613C95.1541 26.1598 91.5612 24.9018 88.5785 26.2723L91.145 31.6957Z" fill="#0F4761" mask="url(#path-14-inside-1_209_3)"/>
<mask id="path-16-inside-2_209_3" fill="white">
<ellipse cx="2.9922" cy="2.96396" rx="2.9922" ry="2.96396" transform="matrix(0.90867 -0.417515 0.427756 0.903894 104.912 2.49854)"/>
</mask>
<ellipse cx="2.9922" cy="2.96396" rx="2.9922" ry="2.96396" transform="matrix(0.90867 -0.417515 0.427756 0.903894 104.912 2.49854)" fill="#C5E1A5"/>
<path d="M108.892 3.93161C108.892 3.93161 108.892 3.93155 108.892 3.93143C108.892 3.9313 108.892 3.93112 108.892 3.93088C108.892 3.9304 108.891 3.92974 108.891 3.92889C108.89 3.92717 108.89 3.92499 108.889 3.92243C108.888 3.91716 108.887 3.91188 108.887 3.90714C108.887 3.90255 108.887 3.89921 108.887 3.89723C108.888 3.89531 108.888 3.89443 108.888 3.89435C108.888 3.89427 108.888 3.89436 108.888 3.89444C108.888 3.89446 108.888 3.89416 108.889 3.89363C108.889 3.89336 108.889 3.89309 108.889 3.89284C108.89 3.89272 108.89 3.89263 108.89 3.89255C108.89 3.89248 108.89 3.89245 108.89 3.89245C108.89 3.89246 108.89 3.89252 108.89 3.89264C108.889 3.89276 108.889 3.89295 108.889 3.89321C108.888 3.8937 108.886 3.89459 108.884 3.89578L111.45 9.31915C114.433 7.94864 115.764 4.42796 114.344 1.42652L108.892 3.93161ZM108.884 3.89578C108.881 3.89697 108.879 3.89761 108.878 3.89793C108.878 3.8981 108.878 3.8982 108.877 3.89826C108.877 3.89832 108.877 3.89834 108.877 3.89835C108.877 3.89835 108.877 3.89834 108.877 3.89831C108.877 3.89829 108.878 3.89827 108.878 3.89825C108.878 3.8982 108.878 3.89816 108.879 3.89815C108.88 3.89812 108.88 3.89818 108.88 3.89818C108.88 3.89816 108.88 3.89813 108.88 3.89816C108.88 3.89819 108.881 3.89851 108.882 3.89951C108.884 3.90054 108.887 3.90243 108.89 3.90551C108.894 3.90869 108.898 3.9126 108.901 3.91696C108.903 3.91907 108.904 3.92097 108.905 3.92254C108.905 3.92331 108.906 3.92394 108.906 3.92439C108.906 3.92462 108.906 3.92479 108.906 3.92492C108.906 3.92504 108.906 3.9251 108.906 3.9251L103.454 6.43019C104.875 9.43162 108.468 10.6896 111.45 9.31915L108.884 3.89578ZM108.906 3.9251C108.906 3.9251 108.906 3.92516 108.906 3.92528C108.906 3.92541 108.906 3.92559 108.907 3.92583C108.907 3.92631 108.907 3.92697 108.907 3.92782C108.908 3.92954 108.909 3.93173 108.909 3.93428C108.91 3.93955 108.911 3.94483 108.911 3.94957C108.911 3.95417 108.911 3.9575 108.911 3.95948C108.911 3.9614 108.91 3.96228 108.91 3.96236C108.91 3.96244 108.91 3.96235 108.91 3.96227C108.91 3.96225 108.91 3.96255 108.91 3.96308C108.909 3.96335 108.909 3.96362 108.909 3.96387C108.909 3.96399 108.909 3.96409 108.908 3.96416C108.908 3.96423 108.908 3.96426 108.908 3.96426C108.908 3.96425 108.908 3.96419 108.909 3.96407C108.909 3.96395 108.909 3.96376 108.91 3.96351C108.91 3.96301 108.912 3.96212 108.915 3.96093L106.348 -1.46244C103.365 -0.0919342 102.034 3.42875 103.454 6.43019L108.906 3.9251ZM108.915 3.96093C108.917 3.95974 108.919 3.9591 108.92 3.95878C108.92 3.95861 108.921 3.95851 108.921 3.95845C108.921 3.95839 108.921 3.95837 108.921 3.95836C108.921 3.95836 108.921 3.95838 108.921 3.9584C108.921 3.95842 108.921 3.95844 108.921 3.95847C108.92 3.95851 108.92 3.95855 108.919 3.95856C108.919 3.95859 108.918 3.95853 108.918 3.95853C108.918 3.95855 108.919 3.95858 108.918 3.95855C108.918 3.95852 108.917 3.9582 108.916 3.9572C108.914 3.95617 108.911 3.95428 108.908 3.9512C108.904 3.94802 108.901 3.94411 108.897 3.93975C108.896 3.93764 108.894 3.93574 108.893 3.93417C108.893 3.9334 108.893 3.93277 108.892 3.93232C108.892 3.93209 108.892 3.93192 108.892 3.93179C108.892 3.93167 108.892 3.93161 108.892 3.93161L114.344 1.42652C112.924 -1.57491 109.331 -2.83294 106.348 -1.46244L108.915 3.96093Z" fill="#0F4761" mask="url(#path-16-inside-2_209_3)"/>
<mask id="path-18-inside-3_209_3" fill="white">
<ellipse cx="2.9922" cy="2.96396" rx="2.9922" ry="2.96396" transform="matrix(0.90867 -0.417515 0.427756 0.903894 125.564 32.1493)"/>
</mask>
<ellipse cx="2.9922" cy="2.96396" rx="2.9922" ry="2.96396" transform="matrix(0.90867 -0.417515 0.427756 0.903894 125.564 32.1493)" fill="#C5E1A5"/>
<path d="M129.544 33.5824C129.544 33.5824 129.544 33.5823 129.544 33.5822C129.544 33.5821 129.544 33.5819 129.544 33.5816C129.544 33.5812 129.543 33.5805 129.543 33.5797C129.542 33.5779 129.542 33.5757 129.541 33.5732C129.54 33.5679 129.539 33.5626 129.539 33.5579C129.539 33.5533 129.539 33.55 129.54 33.548C129.54 33.5461 129.54 33.5452 129.54 33.5451C129.54 33.545 129.54 33.5451 129.54 33.5452C129.54 33.5452 129.54 33.5449 129.541 33.5444C129.541 33.5441 129.541 33.5438 129.542 33.5436C129.542 33.5435 129.542 33.5434 129.542 33.5433C129.542 33.5432 129.542 33.5432 129.542 33.5432C129.542 33.5432 129.542 33.5433 129.542 33.5434C129.542 33.5435 129.541 33.5437 129.541 33.544C129.54 33.5445 129.538 33.5454 129.536 33.5465L132.102 38.9699C135.085 37.5994 136.417 34.0787 134.996 31.0773L129.544 33.5824ZM129.536 33.5465C129.533 33.5477 129.531 33.5484 129.531 33.5487C129.53 33.5489 129.53 33.549 129.53 33.549C129.529 33.5491 129.529 33.5491 129.529 33.5491C129.529 33.5491 129.529 33.5491 129.529 33.5491C129.529 33.5491 129.53 33.549 129.53 33.549C129.53 33.549 129.531 33.5489 129.531 33.5489C129.532 33.5489 129.532 33.5489 129.532 33.5489C129.532 33.5489 129.532 33.5489 129.532 33.5489C129.532 33.5489 129.533 33.5493 129.535 33.5503C129.536 33.5513 129.539 33.5532 129.543 33.5563C129.546 33.5594 129.55 33.5634 129.553 33.5677C129.555 33.5698 129.556 33.5717 129.557 33.5733C129.557 33.5741 129.558 33.5747 129.558 33.5752C129.558 33.5754 129.558 33.5756 129.558 33.5757C129.558 33.5758 129.558 33.5759 129.558 33.5759L124.106 36.0809C125.527 39.0824 129.12 40.3404 132.102 38.9699L129.536 33.5465ZM129.558 33.5759C129.558 33.5759 129.558 33.5759 129.558 33.576C129.558 33.5762 129.559 33.5763 129.559 33.5766C129.559 33.5771 129.559 33.5777 129.559 33.5786C129.56 33.5803 129.561 33.5825 129.561 33.585C129.563 33.5903 129.563 33.5956 129.563 33.6003C129.564 33.6049 129.563 33.6083 129.563 33.6102C129.563 33.6122 129.562 33.613 129.562 33.6131C129.562 33.6132 129.562 33.6131 129.562 33.613C129.562 33.613 129.562 33.6133 129.562 33.6138C129.561 33.6141 129.561 33.6144 129.561 33.6146C129.561 33.6147 129.561 33.6148 129.561 33.6149C129.56 33.615 129.56 33.615 129.56 33.615C129.56 33.615 129.561 33.6149 129.561 33.6148C129.561 33.6147 129.561 33.6145 129.562 33.6143C129.562 33.6138 129.564 33.6129 129.567 33.6117L127 28.1883C124.017 29.5588 122.686 33.0795 124.106 36.0809L129.558 33.5759ZM129.567 33.6117C129.569 33.6105 129.571 33.6099 129.572 33.6095C129.572 33.6094 129.573 33.6093 129.573 33.6092C129.573 33.6091 129.573 33.6091 129.573 33.6091C129.573 33.6091 129.573 33.6091 129.573 33.6092C129.573 33.6092 129.573 33.6092 129.573 33.6092C129.572 33.6093 129.572 33.6093 129.572 33.6093C129.571 33.6093 129.57 33.6093 129.57 33.6093C129.571 33.6093 129.571 33.6093 129.571 33.6093C129.57 33.6093 129.57 33.609 129.568 33.608C129.566 33.6069 129.563 33.605 129.56 33.602C129.556 33.5988 129.553 33.5949 129.549 33.5905C129.548 33.5884 129.547 33.5865 129.546 33.5849C129.545 33.5842 129.545 33.5835 129.545 33.5831C129.544 33.5828 129.544 33.5827 129.544 33.5826C129.544 33.5824 129.544 33.5824 129.544 33.5824L134.996 31.0773C133.576 28.0758 129.983 26.8178 127 28.1883L129.567 33.6117Z" fill="#0F4761" mask="url(#path-18-inside-3_209_3)"/>
<mask id="path-20-inside-4_209_3" fill="white">
<ellipse cx="2.9922" cy="2.96396" rx="2.9922" ry="2.96396" transform="matrix(0.90867 -0.417515 0.427756 0.903894 123.151 22.3861)"/>
</mask>
<ellipse cx="2.9922" cy="2.96396" rx="2.9922" ry="2.96396" transform="matrix(0.90867 -0.417515 0.427756 0.903894 123.151 22.3861)" fill="#C5E1A5"/>
<path d="M127.131 23.8192C127.131 23.8192 127.131 23.8191 127.13 23.819C127.13 23.8189 127.13 23.8187 127.13 23.8185C127.13 23.818 127.13 23.8173 127.129 23.8165C127.129 23.8147 127.128 23.8126 127.128 23.81C127.126 23.8047 127.126 23.7995 127.125 23.7947C127.125 23.7901 127.126 23.7868 127.126 23.7848C127.126 23.7829 127.127 23.782 127.127 23.7819C127.127 23.7818 127.127 23.7819 127.127 23.782C127.127 23.782 127.127 23.7817 127.127 23.7812C127.127 23.7809 127.128 23.7807 127.128 23.7804C127.128 23.7803 127.128 23.7802 127.128 23.7801C127.128 23.7801 127.128 23.78 127.128 23.78C127.128 23.78 127.128 23.7801 127.128 23.7802C127.128 23.7803 127.128 23.7805 127.127 23.7808C127.126 23.7813 127.125 23.7822 127.122 23.7834L129.689 29.2067C132.672 27.8362 134.003 24.3155 132.583 21.3141L127.131 23.8192ZM127.122 23.7834C127.12 23.7845 127.118 23.7852 127.117 23.7855C127.117 23.7857 127.116 23.7858 127.116 23.7858C127.116 23.7859 127.116 23.7859 127.116 23.7859C127.116 23.7859 127.116 23.7859 127.116 23.7859C127.116 23.7859 127.116 23.7858 127.116 23.7858C127.117 23.7858 127.117 23.7857 127.117 23.7857C127.118 23.7857 127.118 23.7858 127.118 23.7858C127.118 23.7857 127.118 23.7857 127.118 23.7857C127.118 23.7858 127.119 23.7861 127.121 23.7871C127.123 23.7881 127.126 23.79 127.129 23.7931C127.133 23.7963 127.136 23.8002 127.14 23.8045C127.141 23.8066 127.142 23.8085 127.143 23.8101C127.144 23.8109 127.144 23.8115 127.144 23.812C127.145 23.8122 127.145 23.8124 127.145 23.8125C127.145 23.8126 127.145 23.8127 127.145 23.8127L121.693 26.3178C123.113 29.3192 126.706 30.5772 129.689 29.2067L127.122 23.7834ZM127.145 23.8127C127.145 23.8127 127.145 23.8127 127.145 23.8129C127.145 23.813 127.145 23.8132 127.145 23.8134C127.145 23.8139 127.146 23.8145 127.146 23.8154C127.146 23.8171 127.147 23.8193 127.148 23.8219C127.149 23.8271 127.15 23.8324 127.15 23.8371C127.15 23.8417 127.15 23.8451 127.149 23.8471C127.149 23.849 127.149 23.8499 127.149 23.8499C127.149 23.85 127.149 23.8499 127.149 23.8498C127.149 23.8498 127.149 23.8501 127.148 23.8507C127.148 23.8509 127.148 23.8512 127.147 23.8514C127.147 23.8516 127.147 23.8517 127.147 23.8517C127.147 23.8518 127.147 23.8518 127.147 23.8518C127.147 23.8518 127.147 23.8518 127.147 23.8516C127.147 23.8515 127.148 23.8513 127.148 23.8511C127.149 23.8506 127.15 23.8497 127.153 23.8485L124.587 18.4251C121.604 19.7956 120.272 23.3163 121.693 26.3178L127.145 23.8127ZM127.153 23.8485C127.156 23.8473 127.157 23.8467 127.158 23.8464C127.159 23.8462 127.159 23.8461 127.159 23.846C127.16 23.846 127.16 23.8459 127.16 23.8459C127.16 23.8459 127.16 23.8459 127.16 23.846C127.159 23.846 127.159 23.846 127.159 23.846C127.159 23.8461 127.158 23.8461 127.158 23.8461C127.157 23.8462 127.157 23.8461 127.157 23.8461C127.157 23.8461 127.157 23.8462 127.157 23.8461C127.157 23.8461 127.156 23.8458 127.154 23.8448C127.153 23.8437 127.15 23.8419 127.146 23.8388C127.143 23.8356 127.139 23.8317 127.136 23.8273C127.134 23.8252 127.133 23.8233 127.132 23.8217C127.132 23.821 127.131 23.8203 127.131 23.8199C127.131 23.8197 127.131 23.8195 127.131 23.8194C127.131 23.8192 127.131 23.8192 127.131 23.8192L132.583 21.3141C131.162 18.3127 127.569 17.0546 124.587 18.4251L127.153 23.8485Z" fill="#0F4761" mask="url(#path-20-inside-4_209_3)"/>
<mask id="path-22-inside-5_209_3" fill="white">
<ellipse cx="2.9922" cy="2.96396" rx="2.9922" ry="2.96396" transform="matrix(0.90867 -0.417515 0.427756 0.903894 108.049 18.4529)"/>
</mask>
<ellipse cx="2.9922" cy="2.96396" rx="2.9922" ry="2.96396" transform="matrix(0.90867 -0.417515 0.427756 0.903894 108.049 18.4529)" fill="#C5E1A5"/>
<path d="M112.029 19.886C112.029 19.886 112.029 19.8859 112.029 19.8858C112.029 19.8856 112.028 19.8855 112.028 19.8852C112.028 19.8847 112.028 19.8841 112.028 19.8832C112.027 19.8815 112.026 19.8793 112.026 19.8768C112.024 19.8715 112.024 19.8662 112.024 19.8615C112.023 19.8569 112.024 19.8536 112.024 19.8516C112.024 19.8497 112.025 19.8488 112.025 19.8487C112.025 19.8486 112.025 19.8487 112.025 19.8488C112.025 19.8488 112.025 19.8485 112.025 19.848C112.026 19.8477 112.026 19.8474 112.026 19.8472C112.026 19.8471 112.026 19.847 112.026 19.8469C112.027 19.8468 112.027 19.8468 112.027 19.8468C112.027 19.8468 112.026 19.8469 112.026 19.847C112.026 19.8471 112.026 19.8473 112.025 19.8476C112.025 19.848 112.023 19.8489 112.02 19.8501L114.587 25.2735C117.57 23.903 118.901 20.3823 117.481 17.3809L112.029 19.886ZM112.02 19.8501C112.018 19.8513 112.016 19.852 112.015 19.8523C112.015 19.8524 112.014 19.8525 112.014 19.8526C112.014 19.8527 112.014 19.8527 112.014 19.8527C112.014 19.8527 112.014 19.8527 112.014 19.8527C112.014 19.8526 112.014 19.8526 112.014 19.8526C112.015 19.8525 112.015 19.8525 112.015 19.8525C112.016 19.8525 112.017 19.8525 112.016 19.8525C112.016 19.8525 112.016 19.8525 112.016 19.8525C112.016 19.8525 112.017 19.8529 112.019 19.8539C112.021 19.8549 112.024 19.8568 112.027 19.8599C112.031 19.863 112.034 19.8669 112.038 19.8713C112.039 19.8734 112.04 19.8753 112.041 19.8769C112.042 19.8777 112.042 19.8783 112.042 19.8787C112.043 19.879 112.043 19.8791 112.043 19.8793C112.043 19.8794 112.043 19.8794 112.043 19.8794L106.591 22.3845C108.011 25.386 111.604 26.644 114.587 25.2735L112.02 19.8501ZM112.043 19.8794C112.043 19.8794 112.043 19.8795 112.043 19.8796C112.043 19.8798 112.043 19.8799 112.043 19.8802C112.043 19.8807 112.044 19.8813 112.044 19.8822C112.044 19.8839 112.045 19.8861 112.046 19.8886C112.047 19.8939 112.048 19.8992 112.048 19.9039C112.048 19.9085 112.048 19.9118 112.047 19.9138C112.047 19.9158 112.047 19.9166 112.047 19.9167C112.047 19.9168 112.047 19.9167 112.047 19.9166C112.047 19.9166 112.047 19.9169 112.046 19.9174C112.046 19.9177 112.046 19.918 112.045 19.9182C112.045 19.9183 112.045 19.9184 112.045 19.9185C112.045 19.9186 112.045 19.9186 112.045 19.9186C112.045 19.9186 112.045 19.9185 112.045 19.9184C112.045 19.9183 112.046 19.9181 112.046 19.9179C112.047 19.9174 112.049 19.9165 112.051 19.9153L109.485 14.4919C106.502 15.8624 105.17 19.3831 106.591 22.3845L112.043 19.8794ZM112.051 19.9153C112.054 19.9141 112.055 19.9134 112.056 19.9131C112.057 19.913 112.057 19.9129 112.057 19.9128C112.058 19.9127 112.058 19.9127 112.058 19.9127C112.058 19.9127 112.058 19.9127 112.058 19.9127C112.057 19.9128 112.057 19.9128 112.057 19.9128C112.057 19.9129 112.056 19.9129 112.056 19.9129C112.055 19.9129 112.055 19.9129 112.055 19.9129C112.055 19.9129 112.055 19.9129 112.055 19.9129C112.055 19.9129 112.054 19.9125 112.052 19.9115C112.051 19.9105 112.048 19.9086 112.044 19.9055C112.041 19.9024 112.037 19.8985 112.034 19.8941C112.032 19.892 112.031 19.8901 112.03 19.8885C112.03 19.8877 112.029 19.8871 112.029 19.8867C112.029 19.8864 112.029 19.8863 112.029 19.8861C112.029 19.886 112.029 19.886 112.029 19.886L117.481 17.3809C116.06 14.3794 112.467 13.1214 109.485 14.4919L112.051 19.9153Z" fill="#0F4761" mask="url(#path-22-inside-5_209_3)"/>
<path d="M96.8717 9.99837C98.729 13.923 97.0126 18.6116 92.998 20.4562C88.9835 22.3008 84.2351 20.5826 82.3779 16.658C80.5206 12.7334 82.237 8.04479 86.2516 6.20017C90.2661 4.35556 95.0144 6.07377 96.8717 9.99837Z" fill="#C5E1A5" stroke="#0F4761" stroke-width="3"/>
<path d="M46.62 128.492V115.252H52.2C52.9867 115.252 53.74 115.406 54.46 115.712C55.1933 116.006 55.8467 116.439 56.42 117.012C56.9933 117.586 57.4467 118.279 57.78 119.092C58.1133 119.906 58.28 120.832 58.28 121.872C58.28 122.912 58.1133 123.839 57.78 124.652C57.4467 125.466 56.9933 126.159 56.42 126.732C55.8467 127.306 55.1933 127.746 54.46 128.052C53.74 128.346 52.9867 128.492 52.2 128.492H46.62ZM48.12 127.072H52.14C53.0867 127.072 53.9067 126.832 54.6 126.352C55.2933 125.872 55.8267 125.239 56.2 124.452C56.5867 123.666 56.78 122.806 56.78 121.872C56.78 120.926 56.5867 120.059 56.2 119.272C55.8267 118.486 55.2933 117.859 54.6 117.392C53.9067 116.912 53.0867 116.672 52.14 116.672H48.12V127.072ZM60.3025 116.812V114.852H61.9225V116.812H60.3025ZM60.3625 128.492V118.492H61.8625V128.492H60.3625ZM69.0441 132.612C67.7907 132.612 66.7707 132.339 65.9841 131.792C65.1974 131.259 64.6641 130.559 64.3841 129.692H66.0441C66.2441 130.186 66.5907 130.566 67.0841 130.832C67.5774 131.112 68.2041 131.252 68.9641 131.252C70.1107 131.252 70.9441 130.979 71.4641 130.432C71.9974 129.899 72.2641 129.119 72.2641 128.092V126.712C71.8907 127.246 71.4041 127.679 70.8041 128.012C70.2174 128.332 69.5107 128.492 68.6841 128.492C67.7107 128.492 66.8574 128.272 66.1241 127.832C65.4041 127.379 64.8441 126.766 64.4441 125.992C64.0441 125.219 63.8441 124.359 63.8441 123.412C63.8441 122.452 64.0441 121.592 64.4441 120.832C64.8441 120.059 65.4041 119.452 66.1241 119.012C66.8574 118.559 67.7107 118.332 68.6841 118.332C69.5107 118.332 70.2174 118.492 70.8041 118.812C71.4041 119.119 71.8907 119.546 72.2641 120.092V118.492H73.7641V128.192C73.7641 129.619 73.3507 130.712 72.5241 131.472C71.7107 132.232 70.5507 132.612 69.0441 132.612ZM68.8841 127.132C69.6174 127.132 70.2374 126.966 70.7441 126.632C71.2641 126.299 71.6574 125.852 71.9241 125.292C72.2041 124.719 72.3441 124.092 72.3441 123.412C72.3441 122.719 72.2041 122.092 71.9241 121.532C71.6574 120.972 71.2641 120.526 70.7441 120.192C70.2374 119.859 69.6174 119.692 68.8841 119.692C68.1507 119.692 67.5174 119.859 66.9841 120.192C66.4507 120.526 66.0441 120.972 65.7641 121.532C65.4841 122.092 65.3441 122.719 65.3441 123.412C65.3441 124.092 65.4841 124.719 65.7641 125.292C66.0441 125.852 66.4507 126.299 66.9841 126.632C67.5174 126.966 68.1507 127.132 68.8841 127.132ZM76.2986 116.812V114.852H77.9186V116.812H76.2986ZM76.3586 128.492V118.492H77.8586V128.492H76.3586ZM81.5402 128.492V119.812H79.5002V118.492H81.5402V114.912H83.0402V118.492H85.3402V119.812H83.0402V128.492H81.5402ZM91.0083 128.652C90.0349 128.652 89.1816 128.426 88.4483 127.972C87.7283 127.506 87.1683 126.879 86.7683 126.092C86.3683 125.306 86.1683 124.439 86.1683 123.492C86.1683 122.532 86.3683 121.666 86.7683 120.892C87.1683 120.106 87.7283 119.486 88.4483 119.032C89.1816 118.566 90.0349 118.332 91.0083 118.332C91.8349 118.332 92.5416 118.492 93.1283 118.812C93.7283 119.132 94.2149 119.566 94.5883 120.112V118.492H96.0883V128.492H94.5883V126.892C94.2149 127.426 93.7283 127.852 93.1283 128.172C92.5416 128.492 91.8349 128.652 91.0083 128.652ZM91.2083 127.292C91.9549 127.292 92.5816 127.119 93.0883 126.772C93.6083 126.426 94.0016 125.966 94.2683 125.392C94.5349 124.806 94.6683 124.172 94.6683 123.492C94.6683 122.799 94.5349 122.166 94.2683 121.592C94.0016 121.019 93.6083 120.559 93.0883 120.212C92.5816 119.866 91.9549 119.692 91.2083 119.692C90.4749 119.692 89.8416 119.866 89.3083 120.212C88.7749 120.559 88.3683 121.019 88.0883 121.592C87.8083 122.166 87.6683 122.799 87.6683 123.492C87.6683 124.172 87.8083 124.806 88.0883 125.392C88.3683 125.966 88.7749 126.426 89.3083 126.772C89.8416 127.119 90.4749 127.292 91.2083 127.292ZM98.6828 128.492V114.492H100.183V128.492H98.6828ZM102.784 128.492V114.492H104.284V128.492H102.784ZM107.926 132.452L109.746 128.352L105.666 118.492H107.326L110.546 126.692L113.826 118.492H115.466L109.546 132.452H107.926ZM121.085 128.492V118.492H122.585V120.952C122.638 120.779 122.738 120.552 122.885 120.272C123.045 119.979 123.272 119.686 123.565 119.392C123.858 119.099 124.225 118.852 124.665 118.652C125.118 118.439 125.652 118.332 126.265 118.332H126.365V119.832H126.185C125.438 119.832 124.792 120.039 124.245 120.452C123.712 120.852 123.298 121.379 123.005 122.032C122.725 122.672 122.585 123.359 122.585 124.092V128.492H121.085ZM132.166 128.652C131.152 128.652 130.266 128.426 129.506 127.972C128.746 127.506 128.152 126.879 127.726 126.092C127.312 125.306 127.106 124.439 127.106 123.492C127.106 122.532 127.306 121.666 127.706 120.892C128.106 120.106 128.679 119.486 129.426 119.032C130.172 118.566 131.052 118.332 132.066 118.332C133.092 118.332 133.972 118.566 134.706 119.032C135.452 119.486 136.026 120.106 136.426 120.892C136.826 121.666 137.026 122.532 137.026 123.492V124.092H128.646C128.726 124.679 128.912 125.219 129.206 125.712C129.512 126.192 129.919 126.579 130.426 126.872C130.932 127.152 131.519 127.292 132.186 127.292C132.892 127.292 133.486 127.139 133.966 126.832C134.446 126.512 134.819 126.106 135.086 125.612H136.726C136.379 126.506 135.826 127.239 135.066 127.812C134.319 128.372 133.352 128.652 132.166 128.652ZM128.666 122.692H135.466C135.332 121.839 134.972 121.126 134.386 120.552C133.799 119.979 133.026 119.692 132.066 119.692C131.106 119.692 130.332 119.979 129.746 120.552C129.172 121.126 128.812 121.839 128.666 122.692ZM138.859 128.492V114.492H140.359V128.492H138.859ZM147.18 128.652C146.207 128.652 145.353 128.426 144.62 127.972C143.9 127.506 143.34 126.879 142.94 126.092C142.54 125.306 142.34 124.439 142.34 123.492C142.34 122.532 142.54 121.666 142.94 120.892C143.34 120.106 143.9 119.486 144.62 119.032C145.353 118.566 146.207 118.332 147.18 118.332C148.007 118.332 148.713 118.492 149.3 118.812C149.9 119.132 150.387 119.566 150.76 120.112V118.492H152.26V128.492H150.76V126.892C150.387 127.426 149.9 127.852 149.3 128.172C148.713 128.492 148.007 128.652 147.18 128.652ZM147.38 127.292C148.127 127.292 148.753 127.119 149.26 126.772C149.78 126.426 150.173 125.966 150.44 125.392C150.707 124.806 150.84 124.172 150.84 123.492C150.84 122.799 150.707 122.166 150.44 121.592C150.173 121.019 149.78 120.559 149.26 120.212C148.753 119.866 148.127 119.692 147.38 119.692C146.647 119.692 146.013 119.866 145.48 120.212C144.947 120.559 144.54 121.019 144.26 121.592C143.98 122.166 143.84 122.799 143.84 123.492C143.84 124.172 143.98 124.806 144.26 125.392C144.54 125.966 144.947 126.426 145.48 126.772C146.013 127.119 146.647 127.292 147.38 127.292ZM153.635 128.492L157.495 123.332L153.875 118.492H155.795L158.375 122.272L160.935 118.492H162.855L159.235 123.332L163.115 128.492H161.195L158.375 124.412L155.535 128.492H153.635ZM168.513 128.652C167.5 128.652 166.613 128.426 165.853 127.972C165.093 127.506 164.5 126.879 164.073 126.092C163.66 125.306 163.453 124.439 163.453 123.492C163.453 122.532 163.653 121.666 164.053 120.892C164.453 120.106 165.027 119.486 165.773 119.032C166.52 118.566 167.4 118.332 168.413 118.332C169.44 118.332 170.32 118.566 171.053 119.032C171.8 119.486 172.373 120.106 172.773 120.892C173.173 121.666 173.373 122.532 173.373 123.492V124.092H164.993C165.073 124.679 165.26 125.219 165.553 125.712C165.86 126.192 166.267 126.579 166.773 126.872C167.28 127.152 167.867 127.292 168.533 127.292C169.24 127.292 169.833 127.139 170.313 126.832C170.793 126.512 171.167 126.106 171.433 125.612H173.073C172.727 126.506 172.173 127.239 171.413 127.812C170.667 128.372 169.7 128.652 168.513 128.652ZM165.013 122.692H171.813C171.68 121.839 171.32 121.126 170.733 120.552C170.147 119.979 169.373 119.692 168.413 119.692C167.453 119.692 166.68 119.979 166.093 120.552C165.52 121.126 165.16 121.839 165.013 122.692ZM179.426 128.652C178.453 128.652 177.6 128.426 176.866 127.972C176.146 127.506 175.586 126.879 175.186 126.092C174.786 125.306 174.586 124.439 174.586 123.492C174.586 122.532 174.786 121.666 175.186 120.892C175.586 120.106 176.146 119.486 176.866 119.032C177.6 118.566 178.453 118.332 179.426 118.332C180.253 118.332 180.96 118.492 181.546 118.812C182.146 119.132 182.633 119.566 183.006 120.112V114.492H184.506V128.492H183.006V126.892C182.633 127.426 182.146 127.852 181.546 128.172C180.96 128.492 180.253 128.652 179.426 128.652ZM179.626 127.292C180.373 127.292 181 127.119 181.506 126.772C182.026 126.426 182.42 125.966 182.686 125.392C182.953 124.806 183.086 124.172 183.086 123.492C183.086 122.799 182.953 122.166 182.686 121.592C182.42 121.019 182.026 120.559 181.506 120.212C181 119.866 180.373 119.692 179.626 119.692C178.893 119.692 178.26 119.866 177.726 120.212C177.193 120.559 176.786 121.019 176.506 121.592C176.226 122.166 176.086 122.799 176.086 123.492C176.086 124.172 176.226 124.806 176.506 125.392C176.786 125.966 177.193 126.426 177.726 126.772C178.26 127.119 178.893 127.292 179.626 127.292ZM186.861 128.492V126.452H188.801V128.492H186.861Z" fill="#0F4761"/>
</svg>
